<svg xmlns="http://www.w3.org/2000/svg" xmlns:xlink="http://www.w3.org/1999/xlink" x="0px" y="0px" width="19.902px" height="17px" viewBox="2.509 5.441 19.902 15.583" enable-background="new 2.509 5.441 19.902 15.583" xml:space="preserve">
<path fill="#FFF" stroke="#000000" stroke-width="0.8" stroke-miterlimit="10" d="M12.5,20.514c-2.217-0.705-4.058-2.137-4.058-2.137  c-1.704-1.273-2.892-2.516-2.892-2.516c-0.708-0.699-1.3-1.494-1.753-2.385c-0.708-1.389-0.971-3.06-0.464-4.563  C3.982,6.993,5.958,6.29,5.958,6.29c1.351-0.485,3.188-0.513,4.595,0.244C11.96,7.291,12.5,8.482,12.5,8.482  s0.541-1.191,1.945-1.949c1.409-0.757,3.245-0.729,4.598-0.244c0,0,1.975,0.703,2.623,2.624c0.508,1.503,0.244,3.174-0.465,4.563  c-0.452,0.891-1.044,1.686-1.752,2.385c0,0-1.188,1.242-2.893,2.516C16.557,18.377,14.717,19.809,12.5,20.514z"></path>
</svg>