<svg xmlns="http://www.w3.org/2000/svg" xmlns:xlink="http://www.w3.org/1999/xlink" x="0px" y="0px" width="25px" height="25px" viewBox="0 0 25 25" enable-background="new 0 0 25 25" xml:space="preserve">
<path d="M16.963,15.664c1.21-1.302,1.957-3.041,1.957-4.955c0-4.021-3.271-7.293-7.293-7.293c-4.021,0-7.292,3.271-7.292,7.293
	c0,4.021,3.271,7.292,7.292,7.292c1.747,0,3.352-0.619,4.609-1.647l4.871,4.59l0.686-0.729L16.963,15.664z M5.334,10.709
	c0-3.47,2.823-6.293,6.292-6.293s6.293,2.823,6.293,6.293c0,3.469-2.823,6.292-6.293,6.292S5.334,14.179,5.334,10.709z"></path>
</svg>