<svg xmlns="http://www.w3.org/2000/svg" xmlns:xlink="http://www.w3.org/1999/xlink" x="0px" y="0px" width="16px" height="22px" viewBox="2 1.844 16 21.561" enable-background="new 2 1.844 16 21.561" xml:space="preserve">
<path d="M14.295,7.404v-1.51c0-0.041-0.05-4.05-4.342-4.05c-3.092,0-4.139,2.505-4.263,3.875v1.685H2v16h16v-16H14.295z
	 M6.688,5.765c0.011-0.119,0.303-2.921,3.265-2.921c3.227,0,3.34,2.739,3.342,3.05v1.51H6.688V5.765z M17,22.404H3v-14h2.69v4
	c-0.133,0.13-0.216,0.311-0.216,0.512c0,0.396,0.321,0.717,0.716,0.717c0.396,0,0.717-0.32,0.717-0.717
	c0-0.201-0.083-0.382-0.217-0.512l-0.001-4h6.606v4c-0.133,0.13-0.217,0.311-0.217,0.512c0,0.396,0.32,0.717,0.717,0.717
	c0.395,0,0.717-0.32,0.717-0.717c0-0.201-0.084-0.381-0.217-0.512v-4H17V22.404z"></path>
</svg>